<?xml version="1.0" encoding="UTF-8" standalone="no"?>
<!-- Created with Inkscape (http://www.inkscape.org/) -->

<svg
   width="34.424053mm"
   height="34.424408mm"
   viewBox="0 0 34.424053 34.424408"
   version="1.1"
   id="svg1"
   xml:space="preserve"
   sodipodi:docname="ロゴ丸のみ.svg"
   inkscape:version="1.4.3 (0d15f75, 2025-12-25)"
   xmlns:inkscape="http://www.inkscape.org/namespaces/inkscape"
   xmlns:sodipodi="http://sodipodi.sourceforge.net/DTD/sodipodi-0.dtd"
   xmlns="http://www.w3.org/2000/svg"
   xmlns:svg="http://www.w3.org/2000/svg"><sodipodi:namedview
     id="namedview1"
     pagecolor="#ffffff"
     bordercolor="#000000"
     borderopacity="0.25"
     inkscape:showpageshadow="2"
     inkscape:pageopacity="0.0"
     inkscape:pagecheckerboard="0"
     inkscape:deskcolor="#d1d1d1"
     inkscape:document-units="mm"
     inkscape:zoom="3.0212664"
     inkscape:cx="65.038951"
     inkscape:cy="107.0743"
     inkscape:window-width="1920"
     inkscape:window-height="1009"
     inkscape:window-x="-8"
     inkscape:window-y="-8"
     inkscape:window-maximized="1"
     inkscape:current-layer="layer-MC0"><inkscape:page
       x="0"
       y="0"
       width="34.424053"
       height="34.424408"
       id="page3"
       margin="0"
       bleed="0" /></sodipodi:namedview><defs
     id="defs1"><clipPath
       clipPathUnits="userSpaceOnUse"
       id="clipPath107"><path
         d="M 0,0 H 858.899 V 612.284 H 0 Z"
         transform="translate(-200.86671,-285.2207)"
         id="path107" /></clipPath><clipPath
       clipPathUnits="userSpaceOnUse"
       id="clipPath109"><path
         d="M 0,0 H 858.899 V 612.284 H 0 Z"
         transform="translate(-216.49561,-290.8418)"
         id="path109" /></clipPath><clipPath
       clipPathUnits="userSpaceOnUse"
       id="clipPath111"><path
         d="M 0,0 H 858.899 V 612.284 H 0 Z"
         transform="translate(-250.15041,-282.78911)"
         id="path111" /></clipPath><clipPath
       clipPathUnits="userSpaceOnUse"
       id="clipPath113"><path
         d="M 0,0 H 858.899 V 612.284 H 0 Z"
         transform="translate(-265.42771,-281.92381)"
         id="path113" /></clipPath><clipPath
       clipPathUnits="userSpaceOnUse"
       id="clipPath115"><path
         d="M 0,0 H 858.899 V 612.284 H 0 Z"
         transform="translate(-300.54151,-280.14061)"
         id="path115" /></clipPath><clipPath
       clipPathUnits="userSpaceOnUse"
       id="clipPath117"><path
         d="M 0,0 H 858.899 V 612.284 H 0 Z"
         transform="translate(-322.22361,-289.81541)"
         id="path117" /></clipPath><clipPath
       clipPathUnits="userSpaceOnUse"
       id="clipPath119"><path
         d="M 0,0 H 858.899 V 612.284 H 0 Z"
         transform="translate(-336.98581,-273.60061)"
         id="path119" /></clipPath><clipPath
       clipPathUnits="userSpaceOnUse"
       id="clipPath121"><path
         d="M 0,0 H 858.899 V 612.284 H 0 Z"
         transform="translate(-356.45121,-284.3018)"
         id="path121" /></clipPath><clipPath
       clipPathUnits="userSpaceOnUse"
       id="clipPath123"><path
         d="M 0,0 H 858.899 V 612.284 H 0 Z"
         transform="translate(-381.99661,-280.97851)"
         id="path123" /></clipPath><clipPath
       clipPathUnits="userSpaceOnUse"
       id="clipPath125"><path
         d="M 0,0 H 858.899 V 612.284 H 0 Z"
         transform="translate(-405.48831,-289.81541)"
         id="path125" /></clipPath><clipPath
       clipPathUnits="userSpaceOnUse"
       id="clipPath127"><path
         d="M 0,0 H 858.899 V 612.284 H 0 Z"
         transform="translate(-277.4863,-314.46781)"
         id="path127" /></clipPath><clipPath
       clipPathUnits="userSpaceOnUse"
       id="clipPath129"><path
         d="M 0,0 H 858.899 V 612.284 H 0 Z"
         transform="translate(-292.2334,-310.97121)"
         id="path129" /></clipPath><clipPath
       clipPathUnits="userSpaceOnUse"
       id="clipPath131"><path
         d="M 0,0 H 858.899 V 612.284 H 0 Z"
         transform="translate(-316.91211,-307.17681)"
         id="path131" /></clipPath><clipPath
       clipPathUnits="userSpaceOnUse"
       id="clipPath133"><path
         d="M 0,0 H 858.899 V 612.284 H 0 Z"
         transform="translate(-279.88531,-381.89791)"
         id="path133" /></clipPath><clipPath
       clipPathUnits="userSpaceOnUse"
       id="clipPath135"><path
         d="M 0,0 H 858.899 V 612.284 H 0 Z"
         transform="translate(-292.5889,-373.60791)"
         id="path135" /></clipPath><clipPath
       clipPathUnits="userSpaceOnUse"
       id="clipPath137"><path
         d="M 0,0 H 858.899 V 612.284 H 0 Z"
         transform="translate(-295.5625,-430.09961)"
         id="path137" /></clipPath><clipPath
       clipPathUnits="userSpaceOnUse"
       id="clipPath139"><path
         d="M 0,0 H 858.899 V 612.284 H 0 Z"
         transform="translate(-295.35691,-351.95121)"
         id="path139" /></clipPath><clipPath
       clipPathUnits="userSpaceOnUse"
       id="clipPath141"><path
         d="M 0,0 H 858.899 V 612.284 H 0 Z"
         transform="translate(-317.58841,-385.54051)"
         id="path141" /></clipPath><clipPath
       clipPathUnits="userSpaceOnUse"
       id="clipPath153"><path
         d="M 0,0 H 858.899 V 612.284 H 0 Z"
         transform="translate(-245.0962,-249.8066)"
         id="path153" /></clipPath><clipPath
       clipPathUnits="userSpaceOnUse"
       id="clipPath155"><path
         d="M 0,0 H 858.899 V 612.284 H 0 Z"
         transform="translate(-255.56841,-256.9775)"
         id="path155" /></clipPath><clipPath
       clipPathUnits="userSpaceOnUse"
       id="clipPath157"><path
         d="M 0,0 H 858.899 V 612.284 H 0 Z"
         transform="translate(-269.1016,-247.43651)"
         id="path157" /></clipPath><clipPath
       clipPathUnits="userSpaceOnUse"
       id="clipPath159"><path
         d="M 0,0 H 858.899 V 612.284 H 0 Z"
         transform="translate(-280.26661,-252.66311)"
         id="path159" /></clipPath><clipPath
       clipPathUnits="userSpaceOnUse"
       id="clipPath161"><path
         d="M 0,0 H 858.899 V 612.284 H 0 Z"
         transform="translate(-294.6694,-250.55761)"
         id="path161" /></clipPath><clipPath
       clipPathUnits="userSpaceOnUse"
       id="clipPath163"><path
         d="M 0,0 H 858.899 V 612.284 H 0 Z"
         transform="translate(-303.72751,-252.67771)"
         id="path163" /></clipPath><clipPath
       clipPathUnits="userSpaceOnUse"
       id="clipPath165"><path
         d="M 0,0 H 858.899 V 612.284 H 0 Z"
         transform="translate(-318.41021,-254.1797)"
         id="path165" /></clipPath><clipPath
       clipPathUnits="userSpaceOnUse"
       id="clipPath167"><path
         d="M 0,0 H 858.899 V 612.284 H 0 Z"
         transform="translate(-331.48881,-249.55661)"
         id="path167" /></clipPath><clipPath
       clipPathUnits="userSpaceOnUse"
       id="clipPath169"><path
         d="M 0,0 H 858.899 V 612.284 H 0 Z"
         transform="translate(-348.76271,-253.14941)"
         id="path169" /></clipPath><clipPath
       clipPathUnits="userSpaceOnUse"
       id="clipPath171"><path
         d="M 0,0 H 858.899 V 612.284 H 0 Z"
         transform="translate(-352.75731,-247.74611)"
         id="path171" /></clipPath><clipPath
       clipPathUnits="userSpaceOnUse"
       id="clipPath173"><path
         d="M 0,0 H 858.899 V 612.284 H 0 Z"
         transform="translate(-220.2397,-239.55961)"
         id="path173" /></clipPath><clipPath
       clipPathUnits="userSpaceOnUse"
       id="clipPath175"><path
         d="M 0,0 H 858.899 V 612.284 H 0 Z"
         transform="translate(-253.15381,-235.5107)"
         id="path175" /></clipPath><clipPath
       clipPathUnits="userSpaceOnUse"
       id="clipPath177"><path
         d="M 0,0 H 858.899 V 612.284 H 0 Z"
         transform="translate(-266.4829,-237.08591)"
         id="path177" /></clipPath><clipPath
       clipPathUnits="userSpaceOnUse"
       id="clipPath179"><path
         d="M 0,0 H 858.899 V 612.284 H 0 Z"
         transform="translate(-330.37061,-234.8486)"
         id="path179" /></clipPath><clipPath
       clipPathUnits="userSpaceOnUse"
       id="clipPath181"><path
         d="M 0,0 H 858.899 V 612.284 H 0 Z"
         transform="translate(-346.71631,-234.52441)"
         id="path181" /></clipPath><clipPath
       clipPathUnits="userSpaceOnUse"
       id="clipPath183"><path
         d="M 0,0 H 858.899 V 612.284 H 0 Z"
         transform="translate(-357.46871,-235.46681)"
         id="path183" /></clipPath><clipPath
       clipPathUnits="userSpaceOnUse"
       id="clipPath185"><path
         d="M 0,0 H 858.899 V 612.284 H 0 Z"
         transform="translate(-372.63771,-239.14751)"
         id="path185" /></clipPath><clipPath
       clipPathUnits="userSpaceOnUse"
       id="clipPath187"><path
         d="M 0,0 H 858.899 V 612.284 H 0 Z"
         transform="translate(-276.54051,-234.8486)"
         id="path187" /></clipPath><clipPath
       clipPathUnits="userSpaceOnUse"
       id="clipPath189"><path
         d="M 0,0 H 858.899 V 612.284 H 0 Z"
         transform="translate(-287.30661,-239.89841)"
         id="path189" /></clipPath><clipPath
       clipPathUnits="userSpaceOnUse"
       id="clipPath191"><path
         d="M 0,0 H 858.899 V 612.284 H 0 Z"
         transform="translate(-304.18361,-235.80571)"
         id="path191" /></clipPath><clipPath
       clipPathUnits="userSpaceOnUse"
       id="clipPath193"><path
         d="M 0,0 H 858.899 V 612.284 H 0 Z"
         transform="translate(-318.80811,-239.14751)"
         id="path193" /></clipPath><clipPath
       clipPathUnits="userSpaceOnUse"
       id="clipPath195"><path
         d="M 0,0 H 858.899 V 612.284 H 0 Z"
         transform="translate(-228.64701,-231.30761)"
         id="path195" /></clipPath></defs><g
     id="layer-MC0"
     inkscape:groupmode="layer"
     inkscape:label="レイヤー 1"
     transform="matrix(0.26458332,0,0,0.26458334,-87.05585,-64.270257)"><path
       id="path132"
       d="m 0,0 c 1.919,1.849 2.184,4.142 2.184,5.263 0,5.1 -4.411,7.769 -8.769,7.769 -1.429,0 -3.621,-0.288 -5.957,-1.67 -1.65,-0.996 -2.436,-1.7 -2.436,-3.006 0,-1.39 1.116,-2.52 2.489,-2.52 0.831,0 1.325,0.365 1.952,0.826 l 0.088,0.066 c 1.012,0.771 2.446,1.232 3.833,1.232 0.592,0 3.54,-0.135 3.54,-2.791 0,-2.175 -2.159,-3.165 -4.165,-3.165 h -1.093 c -1.424,0 -2.458,-1.06 -2.458,-2.521 0,-1.237 0.844,-2.489 2.458,-2.489 h 1.062 c 5.038,0 5.79,-2.218 5.79,-3.54 0,-1.938 -1.48,-4.009 -5.634,-4.009 -1.568,0 -3.096,0.285 -4.543,0.848 -0.337,0.151 -1.363,0.589 -1.893,0.589 -1.372,0 -2.489,-1.131 -2.489,-2.52 0,-1.69 1.346,-2.267 1.83,-2.474 1.455,-0.651 3.769,-1.515 7.064,-1.515 7.546,0 10.925,4.467 10.925,8.893 C 3.778,-4.37 2.731,-1.663 0,0"
       style="fill:#231f20;fill-opacity:1;fill-rule:nonzero;stroke:none"
       transform="matrix(1.3333333,0,0,-1.3333333,373.1804,307.18013)"
       clip-path="url(#clipPath133)" /><path
       id="path134"
       d="M 0,0 C 0,2.109 1.982,2.874 3.314,2.874 4.003,2.874 6.25,2.656 6.25,-0.147 6.25,-2.422 4.601,-3.23 3.188,-3.23 1.095,-3.23 0,-1.605 0,0 m 3.397,6.272 c -1.153,0 -2.111,-0.235 -2.904,-0.605 0.954,2.22 2.677,3.507 4.872,3.507 1.136,0 1.73,0.849 1.73,1.689 0,0.788 -0.497,1.709 -1.898,1.709 -5.103,0 -8.951,-4.685 -8.951,-10.898 0,-6.128 3.751,-8.302 6.963,-8.302 3.755,0 6.586,2.831 6.586,6.586 0,3.659 -2.691,6.314 -6.398,6.314"
       style="fill:#2056ae;fill-opacity:1;fill-rule:nonzero;stroke:none"
       transform="matrix(1.3333333,0,0,-1.3333333,390.11853,318.23347)"
       clip-path="url(#clipPath135)" /><path
       id="path136"
       d="m 0,0 c -1.783,0 -3.229,-1.446 -3.229,-3.229 0,-1.783 1.446,-3.229 3.229,-3.229 23.343,0 42.333,-18.99 42.333,-42.333 0,-23.342 -18.99,-42.332 -42.333,-42.332 -23.343,0 -42.333,18.99 -42.333,42.332 0,14.604 7.564,28.162 19.869,35.881 l -3.819,-6.265 c -0.928,-1.522 -0.446,-3.509 1.076,-4.437 0.525,-0.32 1.105,-0.473 1.678,-0.473 1.089,0 2.151,0.551 2.76,1.549 l 9.636,15.809 c 0.597,0.98 0.63,2.204 0.085,3.214 -0.546,1.01 -1.586,1.655 -2.733,1.693 l -18.914,0.635 c -0.037,0.002 -0.074,0.002 -0.111,0.002 -1.733,0 -3.166,-1.375 -3.225,-3.12 -0.06,-1.782 1.337,-3.276 3.119,-3.335 l 6.362,-0.214 c -13.794,-8.962 -22.24,-24.368 -22.24,-40.939 0,-26.903 21.887,-48.79 48.79,-48.79 26.903,0 48.79,21.887 48.79,48.79 C 48.79,-21.887 26.903,0 0,0"
       style="fill:#2056ae;fill-opacity:1;fill-rule:nonzero;stroke:none"
       transform="matrix(1.3333333,0,0,-1.3333333,394.08333,242.9112)"
       clip-path="url(#clipPath137)" /><path
       id="path138"
       d="m 0,0 c -9.929,0 -16.566,6.262 -16.665,6.357 -0.647,0.627 -0.663,1.659 -0.037,2.306 0.627,0.647 1.657,0.664 2.304,0.039 C -13.859,8.186 -1.357,-3.467 14.96,8.831 15.681,9.375 16.703,9.229 17.244,8.51 17.786,7.791 17.643,6.769 16.923,6.227 10.732,1.561 4.956,0 0,0"
       style="fill:#0e0f0f;fill-opacity:1;fill-rule:nonzero;stroke:none"
       transform="matrix(1.3333333,0,0,-1.3333333,393.8092,347.10907)"
       clip-path="url(#clipPath139)" /><path
       id="path140"
       d="M 0,0 V -7.998 H -5.497 Z M 6.552,-7.998 H 5.167 V 6.787 c 0,2.627 -1.414,3.178 -2.6,3.178 -1.656,0 -2.45,-1.188 -2.873,-1.821 l -11.029,-15.951 -0.114,-0.168 c -0.656,-0.968 -1.018,-1.502 -1.018,-2.397 0,-2.535 2.658,-2.535 3.659,-2.535 H 0 v -3.795 c 0,-1.487 1.093,-2.568 2.6,-2.568 1.275,0 2.567,0.883 2.567,2.568 v 3.795 h 1.385 c 1.413,0 2.439,1.039 2.439,2.471 0,1.39 -1.048,2.438 -2.439,2.438"
       style="fill:#ed114e;fill-opacity:1;fill-rule:nonzero;stroke:none"
       transform="matrix(1.3333333,0,0,-1.3333333,423.4512,302.32333)"
       clip-path="url(#clipPath141)" /></g></svg>
